<?xml version="1.0" standalone="no"?>
<!DOCTYPE svg PUBLIC "-//W3C//DTD SVG 20010904//EN"
 "http://www.w3.org/TR/2001/REC-SVG-20010904/DTD/svg10.dtd">
<svg version="1.0" xmlns="http://www.w3.org/2000/svg"
 width="457.000000pt" height="759.000000pt" viewBox="0 0 457.000000 759.000000"
 preserveAspectRatio="xMidYMid meet">

<g transform="translate(0.000000,759.000000) scale(0.100000,-0.100000)"
fill="#000000" stroke="none">
<path d="M2450 7528 c-3 -3 -50 -8 -105 -12 -55 -3 -127 -10 -160 -16 -33 -5
-63 -10 -66 -10 -3 0 -4 -11 -1 -25 3 -18 9 -24 21 -21 124 35 664 43 841 13
394 -69 663 -195 900 -424 210 -202 340 -436 380 -686 17 -105 7 -317 -19
-423 -114 -450 -481 -877 -981 -1142 -223 -118 -523 -212 -790 -246 -19 -3
-56 -8 -83 -11 -57 -8 -407 -8 -415 0 -3 2 -6 67 -8 142 -1 100 -8 161 -23
220 -48 191 -173 364 -333 460 -59 36 -230 83 -301 83 -105 0 -261 -77 -328
-161 -68 -86 -90 -228 -50 -314 27 -57 102 -148 163 -196 138 -110 441 -218
771 -274 45 -7 45 -10 13 -137 -35 -137 -93 -278 -201 -488 -288 -559 -368
-744 -440 -1027 -20 -76 -39 -144 -43 -152 -4 -7 -44 -26 -89 -41 -329 -112
-578 -405 -742 -873 -172 -495 -195 -1010 -67 -1516 17 -69 36 -126 41 -128 6
-1 16 1 24 6 11 7 8 31 -18 135 -57 227 -74 373 -74 631 0 187 4 257 22 374
81 531 302 983 584 1197 66 50 219 127 276 139 l34 7 -7 -33 c-43 -236 -53
-467 -23 -576 34 -126 99 -213 196 -260 51 -25 66 -28 166 -28 106 0 113 1
187 37 136 65 216 167 240 308 31 180 -68 396 -235 513 -112 79 -210 107 -369
107 -67 0 -88 3 -88 13 0 22 66 256 103 362 58 169 103 270 245 545 240 467
279 555 330 760 l27 109 195 1 c238 0 350 13 616 74 164 37 367 115 534 204
534 286 921 768 1006 1252 24 137 15 341 -21 470 -31 114 -103 268 -175 376
-73 109 -271 304 -389 383 -215 143 -453 232 -741 276 -99 15 -519 33 -530 23z
m-985 -2172 c201 -64 368 -249 426 -473 22 -86 36 -259 25 -317 l-7 -37 -47 6
c-190 27 -451 104 -599 178 -232 115 -342 271 -299 421 56 192 281 292 501
222z m72 -2751 c174 -55 302 -194 350 -378 33 -130 -8 -280 -99 -362 -55 -50
-169 -102 -237 -107 -65 -6 -143 7 -192 32 -52 27 -115 102 -140 169 -38 103
-45 211 -25 394 10 89 23 187 30 217 l12 55 60 6 c83 9 157 1 241 -26z"/>
</g>
</svg>
