<svg id="elzc7Q5sktX1" xmlns="http://www.w3.org/2000/svg" xmlns:xlink="http://www.w3.org/1999/xlink" viewBox="0 0 250 200" shape-rendering="geometricPrecision" text-rendering="geometricPrecision"><path d="M0,167.611291l23.909005-.767738L48.74235,164.54034l15.803038-6.90964l16.931826-3.83869q10.159096,4.606425,11.287885,4.606425c1.128789,0,10.159097,6.141902,11.287885,6.141902q1.128787,0,20.318192-.000001l16.931826-8.445116l15.80304-15.354756l12.416672-16.122495l14.262107-18.425708l10.571239-16.890232L200,69.340846l-2.257578-19.961183q-13.957605-17.65797-13.957605-16.890232t-22.163627-9.980592l-23.704558.767738q-18.060616,6.90964-19.189405,6.90964t-14.674249,12.283806L97.280248,60.89573q5.643944,13.819281,6.772731,13.819281c1.128787,0,10.159097,14.587018,12.416673,14.587018q2.257576,0,15.803038,10.697966l18.060616,16.940596l24.833347,14.587018l16.931827,10.748329L200,156.862957l-4.515154,15.354756-11.700029,15.354756q-18.777262,12.427526-17.648473,12.427526" transform="translate(.000006 0.000005)" fill="none" stroke="#794147" stroke-width="2"/></svg>
