<svg width="150" height="80" xmlns="http://www.w3.org/2000/svg">
 <g>
  <title>Layer 1</title>
  <path id="svg_2" d="m6,78.66667l8.66667,-4l6,-4l6,-2l7.33333,2l6,6l7.33333,0l6.66667,-6l3.33333,-6l5.33333,-8.66667l4,-9.33333l2.66667,-16l-0.66667,-10l-4.66667,-10l-8,-4.66667l-7.33333,4.66667l-4,8c0,0 -2.66667,11.33333 -2,11.33333c0.66667,0 1.33333,10.66667 1.33333,10.66667c0,0 2.66667,12.66667 3.33333,12.66667c0.66667,0 4.66667,8.66667 4.66667,8.66667c0,0 10.66667,11.33333 10.66667,10.66667c0,0.66667 9.33333,1.33333 9.33333,1.33333c0,0 10.66667,-4.66667 10,-5.33333c0.66667,0.66667 9.33333,-6 9.33333,-6c0,0 8,-6 8,-6c0,0 10.66667,-0.66667 10.66667,-0.66667c0,0 7.33333,4 7.33333,4c0,0 6.66667,7.33333 7.33333,8c0.66667,0.66667 5.33333,8 5.33333,8c0,0 14,2.66667 14,2.66667c0,0 7.33333,-3.33333 7.33333,-4" opacity="NaN" stroke="#000" fill="none"/>
 </g>

</svg>